#N canvas 0 0 1362 685 10;
#X obj 432 319 outlet;
#X obj 432 280 clip 1 63;
#X obj 382 64 inlet~;
#X obj 383 103 bp~ 3500 50;
#X obj 382 138 bp~ 3500 50;
#X obj 432 253 convert_amplitude;
#X text 348 88 ____;
#X text 347 147 ____;
#X text 344 97 |;
#X text 344 106 |;
#X text 344 116 |;
#X text 344 126 |;
#X text 344 135 |;
#X text 344 145 |;
#X text 321 120 ____;
#X text 52 123 filters out frequency equal to set frequency;
#X text 427 64 <= input signal;
#X text 278 246 Frequench (Hz);
#X text 384 229 Amplitude (linear);
#X text 542 252 Changes amplitude to synthesiser friendly value;
#X text 494 281 Limits the output to the set bit required;
#X obj 381 182 Freq_Amp~;
#X floatatom 342 224 5 0 0 0 - - -;
#X text 451 181 Processes signal and returns the frequency and amplitude
;
#X connect 1 0 0 0;
#X connect 2 0 3 0;
#X connect 3 0 4 0;
#X connect 4 0 21 0;
#X connect 5 0 1 0;
#X connect 21 0 22 0;
#X connect 21 1 5 0;
