#N canvas 0 0 1362 685 10;
#X floatatom 288 149 5 0 0 0 - - -;
#X text 292 171 F0;
#X obj 275 246 log;
#X obj 320 272 log;
#X obj 320 214 metro;
#X obj 296 528 outlet;
#X obj 298 324 /;
#X obj 313 296 t b f;
#X msg 320 246 2;
#X obj 275 211 / 50;
#X floatatom 298 361 5 0 0 0 - - -;
#X obj 298 387 * 16;
#X floatatom 298 426 5 0 0 0 - - -;
#X obj 287 24 inlet~;
#X obj 296 492 clip 1 63;
#X obj 298 460 + 1;
#X text 254 139 ____;
#X text 252 461 ____;
#X text 250 148 |;
#X text 250 157 |;
#X text 250 167 |;
#X text 250 177 |;
#X text 250 186 |;
#X text 250 196 |;
#X text 229 298 ____;
#X text 250 206 |;
#X text 250 215 |;
#X text 250 225 |;
#X text 250 235 |;
#X text 250 244 |;
#X text 250 254 |;
#X text 250 263 |;
#X text 250 272 |;
#X text 250 337 |;
#X text 250 347 |;
#X text 250 356 |;
#X text 250 366 |;
#X text 250 375 |;
#X text 250 384 |;
#X text 250 394 |;
#X text 250 404 |;
#X text 250 413 |;
#X text 250 423 |;
#X text 250 432 |;
#X text 250 441 |;
#X text 250 451 |;
#X text 250 461 |;
#X text 250 282 |;
#X text 250 292 |;
#X text 250 301 |;
#X text 250 311 |;
#X text 250 318 |;
#X text 250 327 |;
#X text -25 302 Converts F0 to synthesiser friendly value;
#X text 44 494 Limits the output to the set bit required;
#X text 191 24 input signal =>;
#X obj 288 62 Filter_Bank~;
#X msg 357 30 85;
#X msg 322 1 255;
#X obj 350 -34 loadbang;
#X text 383 29 Lowest frequency F0;
#X text 373 63 Filters for frequency in F0;
#X text 195 -1 highest frequency F0;
#X obj 288 106 Freq_Amp~;
#X text 354 108 Gets the frequency and amplitude in F0;
#X connect 0 0 4 0;
#X connect 0 0 9 0;
#X connect 2 0 6 0;
#X connect 3 0 7 0;
#X connect 4 0 8 0;
#X connect 6 0 10 0;
#X connect 7 0 6 0;
#X connect 7 1 6 1;
#X connect 8 0 3 0;
#X connect 9 0 2 0;
#X connect 10 0 11 0;
#X connect 11 0 12 0;
#X connect 12 0 15 0;
#X connect 13 0 56 0;
#X connect 14 0 5 0;
#X connect 15 0 14 0;
#X connect 56 0 63 0;
#X connect 57 0 56 2;
#X connect 58 0 56 1;
#X connect 59 0 58 0;
#X connect 59 0 57 0;
#X connect 63 0 0 0;
