#N canvas 0 0 1362 685 10;
#X floatatom 9 79 5 0 0 0 - - -;
#X floatatom 472 91 5 0 0 0 - - -;
#X floatatom 523 80 5 0 0 0 - - -;
#X floatatom 60 86 5 0 0 0 - - -;
#X floatatom 957 115 5 0 0 0 - - -;
#X floatatom 1033 109 5 0 0 0 - - -;
#X text 17 94 F1;
#X text 65 101 A1;
#X text 531 99 A2;
#X text 964 130 F3;
#X text 1042 124 A3;
#X obj 9 114 - 125;
#X obj 9 138 / 25;
#X obj 472 136 - 550;
#X obj 472 187 + 1;
#X obj 957 147 - 1350;
#X obj 472 165 / 50;
#X obj 957 171 / 50;
#X obj 957 197 + 1;
#X text 482 108 F2;
#X obj 9 242 outlet;
#X obj 60 180 outlet;
#X obj 472 251 outlet;
#X obj 523 193 outlet;
#X obj 957 252 outlet;
#X obj 1033 251 outlet;
#X obj 9 210 clip 1 63;
#X obj 472 226 clip 1 63;
#X obj 60 153 clip 1 63;
#X obj 473 -139 inlet~;
#X obj 60 121 convert_amplitude;
#X floatatom 1056 185 5 0 0 0 - - -;
#X obj 523 162 clip 1 63;
#X obj 957 228 clip 1 63;
#X obj 1033 220 clip 1 63;
#X obj 9 49 Freq_Amp~;
#X obj 36 -120 loadbang;
#X obj 9 13 Filter_Bank~;
#X msg 43 -27 700;
#X msg 78 -26 300;
#X obj 36 -95 s bang;
#X obj 63 -59 r bang;
#X obj 526 -60 r bang;
#X msg 506 -28 2400;
#X msg 541 -27 800;
#X obj 1010 -71 r bang;
#X msg 991 -37 2400;
#X msg 1026 -38 3400;
#X text 94 14 Filters for frequency in F1;
#X text 554 10 Filters for frequency in F2;
#X text 1040 -1 Filters for frequency in F3;
#X text -82 -28 highest frequency F1;
#X text 109 -18 Lowest frequency F1;
#X text 380 -28 highest frequency F2;
#X text 860 -34 highest frequency F3;
#X text 573 -30 Lowest frequency F2;
#X text 1060 -40 Lowest frequency F3;
#X text 746 42 Gets the frequency and amplitude=>;
#X text -245 209 Limits the output to the set bit required;
#X text 1102 218 Limits the output to the set bit required;
#X text 585 157 Limits the output to the set bit required;
#X text 702 228 Limits the output to the set bit required;
#X text 122 150 Limits the output to the set bit required;
#X text 94 49 <=--------Gets the frequency and amplitude----------------=>
;
#X text 215 225 Limits the output to the set bit required;
#X text 176 122 Changes amplitude to synthesiser friendly value;
#X text 634 123 Changes amplitude to synthesiser friendly value;
#X text 1143 149 Changes amplitude to synthesiser friendly value;
#X text 521 -140 <= input signal;
#X obj 472 12 Filter_Bank~;
#X obj 957 1 Filter_Bank~;
#X text -30 72 ____;
#X text -31 131 ____;
#X text -34 81 |;
#X text -34 90 |;
#X text -34 100 |;
#X text -34 110 |;
#X text -34 119 |;
#X text -34 129 |;
#X text -57 104 ____;
#X text -349 107 Converts frequency to synthesiser friendly value;
#X text 440 129 ____;
#X text 439 188 ____;
#X text 436 138 |;
#X text 436 147 |;
#X text 436 157 |;
#X text 436 167 |;
#X text 436 176 |;
#X text 436 186 |;
#X text 413 161 ____;
#X text 121 164 Converts frequency to synthesiser friendly value;
#X text 922 133 ____;
#X text 921 192 ____;
#X text 918 142 |;
#X text 918 151 |;
#X text 918 161 |;
#X text 918 171 |;
#X text 918 180 |;
#X text 918 190 |;
#X text 895 165 ____;
#X text 603 168 Converts frequency to synthesiser friendly value;
#X obj 523 126 convert_amplitude;
#X obj 1033 151 convert_amplitude;
#X obj 472 49 Freq_Amp~;
#X obj 958 40 Freq_Amp~;
#X connect 0 0 11 0;
#X connect 1 0 13 0;
#X connect 2 0 101 0;
#X connect 3 0 30 0;
#X connect 4 0 15 0;
#X connect 5 0 102 0;
#X connect 11 0 12 0;
#X connect 12 0 26 0;
#X connect 13 0 16 0;
#X connect 14 0 27 0;
#X connect 15 0 17 0;
#X connect 16 0 14 0;
#X connect 17 0 18 0;
#X connect 18 0 33 0;
#X connect 26 0 20 0;
#X connect 27 0 22 0;
#X connect 28 0 21 0;
#X connect 29 0 37 0;
#X connect 29 0 69 0;
#X connect 29 0 70 0;
#X connect 30 0 28 0;
#X connect 32 0 23 0;
#X connect 33 0 24 0;
#X connect 34 0 25 0;
#X connect 35 0 0 0;
#X connect 35 1 3 0;
#X connect 36 0 40 0;
#X connect 37 0 35 0;
#X connect 38 0 37 1;
#X connect 39 0 37 2;
#X connect 41 0 38 0;
#X connect 41 0 39 0;
#X connect 42 0 43 0;
#X connect 42 0 44 0;
#X connect 43 0 69 1;
#X connect 44 0 69 2;
#X connect 45 0 46 0;
#X connect 45 0 47 0;
#X connect 46 0 70 1;
#X connect 47 0 70 2;
#X connect 69 0 103 0;
#X connect 70 0 104 0;
#X connect 101 0 32 0;
#X connect 102 0 31 0;
#X connect 102 0 34 0;
#X connect 103 0 1 0;
#X connect 103 1 2 0;
#X connect 104 0 4 0;
#X connect 104 1 5 0;
