#N canvas 405 195 450 300 10;
#X text 176 81 INPUT;
#X text 179 101 1 Audio Signal;
#X text 177 119 OUTPUT;
#X text 183 133 1 F1 frequency in 6bit;
#X text 182 151 2 F1 amplitude in 6bit;
#X text 182 167 3 F2 frequency in 6bit;
#X text 181 185 4 F2 amplitude in 6bit;
#X text 182 203 5 F3 frequency in 6bit;
#X text 181 221 6 F3 amplitude in 6bit;
#X text 66 18 F1-A1_F2-A2_F3-A3_Packaging_Data: Takes audio signal
and;
#X text 64 37 returns F1 \, F2 \, F3 \, A1 \, A2 and A3 speech parameters
in;
#X text 67 53 format that can be written in file;
