#N canvas 0 0 1362 685 10;
#X obj 192 -22 inlet~;
#X obj 193 167 outlet~;
#X obj 243 -24 inlet;
#X obj 293 -21 inlet;
#X obj 193 7 lop~;
#X obj 192 33 lop~;
#X obj 192 59 lop~;
#X obj 192 86 hip~;
#X obj 192 112 hip~;
#X obj 193 141 hip~;
#X floatatom 247 1 5 0 0 0 - - -;
#X floatatom 302 8 5 0 0 0 - - -;
#X text 95 -22 input signal =>;
#X text 173 -45 Control Frequency 1;
#X text 334 -22 <= Control Frequency 2;
#X text 160 2 ____;
#X text 159 61 ____;
#X text 156 11 |;
#X text 156 20 |;
#X text 156 30 |;
#X text 156 40 |;
#X text 156 49 |;
#X text 156 59 |;
#X text 133 34 ____;
#X text -153 40 filters out frequency below control frequency 1;
#X text 158 140 ____;
#X text 155 90 |;
#X text 155 99 |;
#X text 155 109 |;
#X text 155 119 |;
#X text 155 128 |;
#X text 155 138 |;
#X text 132 113 ____;
#X text 158 81 ____;
#X text -154 119 filters out frequency above control frequency 2;
#X connect 0 0 4 0;
#X connect 2 0 10 0;
#X connect 3 0 11 0;
#X connect 4 0 5 0;
#X connect 5 0 6 0;
#X connect 6 0 7 0;
#X connect 7 0 8 0;
#X connect 8 0 9 0;
#X connect 9 0 1 0;
#X connect 10 0 4 1;
#X connect 10 0 5 1;
#X connect 10 0 6 1;
#X connect 11 0 7 1;
#X connect 11 0 8 1;
#X connect 11 0 9 1;
