#N canvas -8 -8 1366 685 10;
#X text 576 59 Click for making V/UV decision;
#X obj 838 202 metro;
#X floatatom 838 263 5 0 0 0 - - -;
#X msg 838 229 set 32;
#X text 844 283 MS;
#X obj 310 306 pack 0 0 0 0 0 0 0 0 0 0 0 0;
#X obj 310 382 list-round 1;
#X obj 278 527 textfile;
#X msg 109 483 clear;
#X msg 161 394 add;
#X obj 161 424 list;
#X obj 161 452 list trim;
#X obj 278 478 savepanel;
#X msg 278 503 write \$1 cr;
#X msg 63 350 \; pd dsp 1;
#X msg 244 349 \; pd dsp 0;
#X obj 161 365 metro 20;
#X text 253 432 Save File;
#X floatatom 713 241 5 0 0 0 - - -;
#X text 115 224 FN;
#X text 102 280 Record;
#X obj 63 75 inlet;
#X obj 109 298 inlet;
#X obj 278 451 inlet;
#X obj 634 84 inlet;
#X obj 161 307 inlet;
#X msg 161 338 stop;
#X obj 125 205 ALF_Analysis~;
#X obj 278 207 F1-A1_F2-A2_F3-A3_Packaging_Data~;
#X obj 489 206 AHF_Analysis~;
#X obj 634 140 voicing_Analysis~;
#X obj 787 134 Freq_Amp~;
#X obj 713 205 F0_Analysis~;
#X text 323 -94 <= input signal;
#X text 205 223 ALF;
#X text 266 221 F1;
#X text 302 223 A1;
#X text 343 226 F2;
#X text 385 223 A2;
#X text 419 223 F3;
#X text 455 222 A3;
#X text 489 223 ALF;
#X text 725 222 F0;
#X text 635 157 V;
#X obj 43 406 s bang;
#X obj 278 78 Filter_Bank~;
#X obj 279 -96 inlet~;
#X obj 330 19 r bang;
#X msg 347 43 40;
#X text 366 75 <=does a filtering for noise;
#X msg 312 44 6000;
#X obj 279 -6 *~;
#X obj 474 -65 inlet~;
#X text 491 306 packs all 12 parameter values;
#X obj 411 370 /;
#X obj 411 341 list split 1;
#X obj 411 399 int;
#X obj 411 429 select 1 2;
#X obj 411 457 counter;
#X floatatom 411 490 5 0 0 0 - - -;
#X msg 353 466 0;
#X obj 411 516 * 12;
#X obj 411 539 * 6;
#X obj 411 564 /;
#X obj 9 445 clock;
#X floatatom 9 474 5 0 0 0 - - -;
#X obj -6 507 i;
#X obj 101 392 s s_bang;
#X obj -51 469 r s_bang;
#X obj 211 479 s sf_bang;
#X obj -112 449 r sf_bang;
#X obj -6 535 s time;
#X obj 461 502 r time;
#X obj 461 527 t b f;
#X obj 411 596 outlet;
#X obj 125 365 t b;
#X obj 98 416 r sf_bang;
#X msg -93 521 0;
#X obj 701 338 outlet;
#N canvas 260 223 450 300 gui 0;
#X obj 125 67 inlet;
#X obj 165 66 inlet;
#X obj 209 67 inlet;
#X obj 251 68 inlet;
#X obj 291 69 inlet;
#X obj 161 159 pack 0 0 0 0 0;
#X obj 161 187 outlet;
#X obj 291 104 - 50;
#X obj 251 103 - 50;
#X obj 209 102 - 50;
#X obj 165 101 - 50;
#X obj 125 102 - 50;
#X connect 0 0 11 0;
#X connect 1 0 10 0;
#X connect 2 0 9 0;
#X connect 3 0 8 0;
#X connect 4 0 7 0;
#X connect 5 0 6 0;
#X connect 7 0 5 4;
#X connect 8 0 5 3;
#X connect 9 0 5 2;
#X connect 10 0 5 1;
#X connect 11 0 5 0;
#X restore 701 306 pd gui;
#X text 70 57 listen/clear;
#X obj 78 104 s c_bang;
#X obj 353 438 r c_bang;
#X obj -93 496 delay 100;
#X connect 1 0 3 0;
#X connect 1 0 2 0;
#X connect 2 0 5 11;
#X connect 3 0 2 0;
#X connect 5 0 6 0;
#X connect 5 0 55 0;
#X connect 6 0 10 1;
#X connect 8 0 7 0;
#X connect 9 0 10 0;
#X connect 10 0 11 0;
#X connect 11 0 7 0;
#X connect 12 0 13 0;
#X connect 13 0 7 0;
#X connect 16 0 9 0;
#X connect 21 0 14 0;
#X connect 21 0 81 0;
#X connect 22 0 14 0;
#X connect 22 0 8 0;
#X connect 22 0 16 0;
#X connect 22 0 44 0;
#X connect 22 0 64 0;
#X connect 23 0 12 0;
#X connect 23 0 69 0;
#X connect 24 0 30 0;
#X connect 25 0 15 0;
#X connect 25 0 26 0;
#X connect 26 0 16 0;
#X connect 26 0 75 0;
#X connect 27 0 5 0;
#X connect 27 1 5 1;
#X connect 27 1 79 0;
#X connect 28 0 5 2;
#X connect 28 1 5 3;
#X connect 28 1 79 1;
#X connect 28 2 5 4;
#X connect 28 3 5 5;
#X connect 28 3 79 2;
#X connect 28 4 5 6;
#X connect 28 5 5 7;
#X connect 28 5 79 3;
#X connect 29 0 5 8;
#X connect 29 0 79 4;
#X connect 30 0 5 9;
#X connect 31 1 1 0;
#X connect 32 0 5 10;
#X connect 32 0 18 0;
#X connect 45 0 27 0;
#X connect 45 0 28 0;
#X connect 45 0 29 0;
#X connect 45 0 30 1;
#X connect 45 0 31 0;
#X connect 45 0 32 0;
#X connect 46 0 51 0;
#X connect 47 0 50 0;
#X connect 47 0 48 0;
#X connect 48 0 45 2;
#X connect 50 0 45 1;
#X connect 51 0 45 0;
#X connect 52 0 51 1;
#X connect 54 0 56 0;
#X connect 55 0 54 0;
#X connect 55 0 54 1;
#X connect 56 0 57 0;
#X connect 57 0 58 0;
#X connect 58 0 59 0;
#X connect 59 0 61 0;
#X connect 60 0 59 0;
#X connect 61 0 62 0;
#X connect 62 0 63 0;
#X connect 63 0 74 0;
#X connect 64 0 65 0;
#X connect 65 0 66 1;
#X connect 66 0 71 0;
#X connect 68 0 66 0;
#X connect 68 0 83 0;
#X connect 70 0 66 0;
#X connect 70 0 83 0;
#X connect 72 0 73 0;
#X connect 73 0 63 0;
#X connect 73 1 63 1;
#X connect 75 0 67 0;
#X connect 75 0 64 1;
#X connect 76 0 64 1;
#X connect 77 0 66 1;
#X connect 79 0 78 0;
#X connect 82 0 60 0;
#X connect 83 0 77 0;
