#N canvas -8 -8 1366 685 10;
#X obj 169 28 inlet~;
#X obj 169 145 route 0 1 2 3 4 5 6 7 8 9 10 11 12 13 14;
#X obj 170 357 outlet;
#X obj 245 358 outlet;
#X obj 169 192 unpack 0 0 0 0;
#X obj 169 108 sigmund~ -npeak 15 peaks;
#X obj 204 238 * 10;
#X obj 204 274 + 0.001;
#X text 211 26 <= input signal;
#X text 326 107 <= Converts signal to numeric data sets;
#X text 419 142 <= Stores all the numeric data obtained by sigmund
;
#X text 265 189 <= Distributes the signal in numeric format over the
four inputs;
#X text 80 331 Frequench (Hz);
#X text 239 322 Amplitude (linear);
#X text 269 255 Sine component;
#X floatatom 271 237 5 0 0 0 - - -;
#X floatatom 370 235 5 0 0 0 - - -;
#X text 361 254 Cosine component;
#X connect 0 0 5 0;
#X connect 1 0 4 0;
#X connect 4 0 2 0;
#X connect 4 1 6 0;
#X connect 4 2 15 0;
#X connect 4 3 16 0;
#X connect 5 0 1 0;
#X connect 6 0 7 0;
#X connect 7 0 3 0;
