#N canvas 0 0 1362 685 10;
#X obj 38 -9 inlet~;
#X obj 485 0 loadbang;
#X obj 568 82 s sync;
#X obj 568 13 bng 15 250 50 0 empty empty empty 17 7 0 10 -262144 -1
-1;
#X obj 38 118 rfft~;
#X obj 37 152 framp~;
#X obj 71 220 log~;
#X obj 39 25 rzero~ 1;
#X obj 568 54 metro 25;
#X obj 497 364 osc~;
#X obj 497 316 samplerate~;
#X obj 497 387 *~ -0.5;
#X obj 497 410 +~ 0.5;
#X obj 485 293 bng 15 250 50 0 empty empty empty 0 -6 0 8 -262144 -1
-1;
#X obj 497 340 /;
#X obj 485 245 t b f;
#X msg 418 324 \; pd dsp 1;
#X text 516 288 Create Hanning window;
#N canvas 0 0 450 300 (subpatch) 0;
#X array \$0-Hanning 8192 float 0;
#X coords 0 1 8191 0 200 140 1;
#X restore 264 401 graph;
#X obj 39 82 *~;
#X obj 54 53 tabreceive~ \$0-Hanning;
#X text 68 81 <= window signal;
#X obj 505 210 block~;
#X msg 605 177 resize \$1;
#X floatatom 485 140 5 0 0 0 - - -;
#X obj 605 210 s \$0-Hanning;
#X obj 71 187 max~ 0.0001;
#X msg 505 177 set \$1 4 0.25;
#X obj 512 270 / 4;
#X text 517 107 <= set window/block size;
#X text 82 153 <= compute the magnitude spectrum;
#X text 101 220 <= take the log;
#X text 146 187 <= set a noise floor;
#X text 362 177 sample rate is 11kHz =>;
#X obj 70 255 lop~ 250;
#X text 123 254 <= filter the log spectrum;
#X obj 485 435 tabwrite~ \$0-Hanning;
#X obj 114 109 outlet~;
#X msg 485 107 8192;
#X connect 0 0 7 0;
#X connect 1 0 8 0;
#X connect 1 0 38 0;
#X connect 3 0 8 0;
#X connect 3 0 38 0;
#X connect 4 0 5 0;
#X connect 4 1 5 1;
#X connect 5 1 26 0;
#X connect 6 0 34 0;
#X connect 7 0 19 0;
#X connect 8 0 2 0;
#X connect 9 0 11 0;
#X connect 10 0 14 0;
#X connect 11 0 12 0;
#X connect 12 0 36 0;
#X connect 13 0 10 0;
#X connect 13 0 36 0;
#X connect 14 0 9 0;
#X connect 15 0 13 0;
#X connect 15 0 16 0;
#X connect 15 1 28 0;
#X connect 19 0 4 0;
#X connect 20 0 19 1;
#X connect 20 0 37 0;
#X connect 23 0 25 0;
#X connect 24 0 27 0;
#X connect 24 0 23 0;
#X connect 24 0 15 0;
#X connect 26 0 6 0;
#X connect 27 0 22 0;
#X connect 28 0 14 1;
#X connect 38 0 24 0;
