#N canvas 0 0 1362 685 10;
#X obj 169 44 bng 15 250 50 0 empty empty empty 17 7 0 10 -260097 -1
-1;
#X obj 185 3 bng 15 250 50 0 empty empty empty 17 7 0 10 -4034 -1 -1
;
#X obj 268 98 bng 15 250 50 0 empty empty empty 17 7 0 10 -159808 -1
-1;
#X obj 202 39 bng 15 250 50 0 empty empty empty 17 7 0 10 -258113 -1
-1;
#X floatatom 169 241 20 0 0 0 - - -;
#X obj 218 104 bng 15 250 50 0 empty empty empty 17 7 0 10 -4160 -1
-1;
#X obj 169 161 formant_analyser~;
#X obj 235 12 audio~;
#X obj 235 -31 tgl 15 0 empty empty empty 17 7 0 10 -204800 -1 -1 0
1;
#X obj 268 -31 bng 15 250 50 0 empty empty empty 17 7 0 10 -204800
-1 -1;
#X text 170 -12 Record;
#X text 195 23 Stop;
#X text 186 87 Save-File;
#X text 270 -48 Play Recording;
#X text 132 -51 Start/Stop Microphone;
#X text 296 240 bps output rate;
#X obj 250 54 hanning;
#X text 265 81 Normal/Whispered speech;
#X obj 420 198 unpack 0 0 0 0 0;
#X obj 431 242 vu 15 120 empty empty -1 -8 0 10 -66577 -262144 1 0
;
#X obj 450 242 vu 15 120 empty empty -1 -8 0 10 -66577 -262144 1 0
;
#X obj 466 243 vu 15 120 empty empty -1 -8 0 10 -66577 -262144 1 0
;
#X obj 485 242 vu 15 120 empty empty -1 -8 0 10 -66577 -262144 1 0
;
#X obj 503 242 vu 15 120 empty empty -1 -8 0 10 -66577 -262144 1 0
;
#X text 431 369 Volume Display;
#X text 45 41 Listen/Clear Counter;
#X connect 0 0 6 0;
#X connect 1 0 6 1;
#X connect 2 0 6 6;
#X connect 3 0 6 2;
#X connect 5 0 6 3;
#X connect 6 0 4 0;
#X connect 6 1 18 0;
#X connect 7 0 6 4;
#X connect 7 1 5 0;
#X connect 7 1 3 0;
#X connect 8 0 7 0;
#X connect 9 0 7 1;
#X connect 9 0 1 0;
#X connect 16 0 6 5;
#X connect 18 0 19 0;
#X connect 18 1 20 0;
#X connect 18 2 21 0;
#X connect 18 3 22 0;
#X connect 18 4 23 0;
